<svg xmlns="http://www.w3.org/2000/svg" viewBox="0 0 64 64">
  <rect width="64" height="64" rx="12" fill="#0a0a0c"/>
  <!-- Main sparkle/star -->
  <path d="M32 8 L35 26 L32 28 L29 26 Z" fill="#f4bf4f"/>
  <path d="M32 56 L35 38 L32 36 L29 38 Z" fill="#f4bf4f"/>
  <path d="M8 32 L26 29 L28 32 L26 35 Z" fill="#f4bf4f"/>
  <path d="M56 32 L38 29 L36 32 L38 35 Z" fill="#f4bf4f"/>
  <!-- Center glow -->
  <circle cx="32" cy="32" r="4" fill="#f4bf4f"/>
  <!-- Small sparkles -->
  <circle cx="14" cy="14" r="3" fill="#f4bf4f"/>
  <path d="M14 8 L15 13 L14 14 L13 13 Z" fill="#f4bf4f"/>
  <path d="M14 20 L15 15 L14 14 L13 15 Z" fill="#f4bf4f"/>
  <path d="M8 14 L13 13 L14 14 L13 15 Z" fill="#f4bf4f"/>
  <path d="M20 14 L15 13 L14 14 L15 15 Z" fill="#f4bf4f"/>
  <circle cx="50" cy="50" r="2.5" fill="#f4bf4f"/>
  <path d="M50 45 L51 49 L50 50 L49 49 Z" fill="#f4bf4f"/>
  <path d="M50 55 L51 51 L50 50 L49 51 Z" fill="#f4bf4f"/>
  <path d="M45 50 L49 49 L50 50 L49 51 Z" fill="#f4bf4f"/>
  <path d="M55 50 L51 49 L50 50 L51 51 Z" fill="#f4bf4f"/>
</svg>
